<?xml version="1.0" encoding="UTF-8"?><svg id="a" xmlns="http://www.w3.org/2000/svg" xmlns:xlink="http://www.w3.org/1999/xlink" viewBox="0 0 1366 768"><defs><style>.w{fill:url(#u);}.x{fill:url(#t);}.y{fill:url(#v);}.a`{fill:url(#e);}.aa{fill:url(#d);}.ab{fill:url(#g);}.ac{fill:url(#f);}.ad{fill:url(#p);}.ae{fill:url(#o);}.af{fill:url(#s);}.ag{fill:url(#q);}.ah{fill:url(#r);}.ai{fill:url(#i);}.aj{fill:url(#h);}.ak{fill:url(#k);}.al{fill:url(#j);}.am{fill:url(#m);}.an{fill:url(#l);}.ao{fill:url(#n);}.ap{fill:url(#c);}.aq{fill:url(#b);}.ar{font-family:AvenirNext-DemiBoldItalic, 'Avenir Next Cyr', sans-serif;;}.as{fill:#fff;}.at,.au{fill:#333;}.av{fill:#d5d5d5;}.aw{stroke-width:1.72px;}.aw,.ax,.ay,.b`,.ba,.bb,.bc,.bd,.be{fill:none;}.aw,.ax,.ay,.b`,.bb,.bc,.bd,.be{stroke-miterlimit:10;}.aw,.ay,.b`,.ba,.bb,.bc,.bd{stroke:#fff;}.ax{stroke-width:.32px;}.ax,.be{stroke:#000;}.bf{letter-spacing:-.01em;}.ay{stroke-width:1.3px;}.b`{stroke-width:1.83px;}.bg{font-family:RunChild, Run Child;}.bg,.au{font-size:100px;}.ba{stroke-linecap:round;stroke-linejoin:round;stroke-width:1.03px;}.bb{stroke-width:1.38px;}.bh,.bi{font-family:Avenir-Medium, Avenir;}.bc{stroke-width:1.04px;}.au{letter-spacing:-.08em;}.bd{stroke-width:1.31px;}.bi{font-size:75.44px;letter-spacing:-.08em;}.be{stroke-width:.98px;}</style><linearGradient id="b" x1="693.81" y1="179.54" x2="724.95" y2="179.54" gradientTransform="translate(-388.94 -68.69) rotate(4.36)" gradientUnits="userSpaceOnUse"><stop offset="0" stop-color="#e02500" stop-opacity=".8"/><stop offset=".04" stop-color="#d92009" stop-opacity=".84"/><stop offset=".1" stop-color="#c71222" stop-opacity=".95"/><stop offset=".12" stop-color="#bf0d2e"/><stop offset="1" stop-color="#bf0d2e"/></linearGradient><linearGradient id="c" x1="701.38" y1="156.71" x2="720.09" y2="156.71" gradientTransform="translate(-416.77 26.73) rotate(-3.36)" xlink:href="#b"/><linearGradient id="d" x1="703.33" y1="140.29" x2="722.04" y2="140.29" gradientTransform="translate(-418.83 26.74) rotate(-3.36)" xlink:href="#b"/><linearGradient id="e" x1="710.8" y1="125.47" x2="729.51" y2="125.47" gradientTransform="translate(-420.77 26.04) rotate(-3.36)" xlink:href="#b"/><linearGradient id="f" x1="722.54" y1="110.69" x2="741.25" y2="110.69" gradientTransform="translate(-422.77 24.81) rotate(-3.36)" xlink:href="#b"/><linearGradient id="g" x1="728.34" y1="160.27" x2="907.61" y2="160.27" gradientTransform="translate(-425.46 116.8) rotate(-10.49)" gradientUnits="userSpaceOnUse"><stop offset="0" stop-color="#e02500" stop-opacity=".8"/><stop offset=".04" stop-color="#d92009" stop-opacity=".84"/><stop offset=".1" stop-color="#c71222" stop-opacity=".95"/><stop offset=".12" stop-color="#bf0d2e"/><stop offset=".23" stop-color="#b01536"/><stop offset=".43" stop-color="#8b2d4d"/><stop offset=".72" stop-color="#4e5273"/><stop offset="1" stop-color="#0b7d9d"/></linearGradient><linearGradient id="h" x1="856.37" y1="324.39" x2="1083.57" y2="324.39" gradientTransform="translate(-615.06 204.45) rotate(-15.7)" xlink:href="#g"/><linearGradient id="i" x1="480.18" y1="44.89" x2="492.32" y2="44.89" gradientTransform="translate(-420.59 -9.26) rotate(4.36)" xlink:href="#b"/><linearGradient id="j" x1="483.13" y1="35.99" x2="490.43" y2="35.99" gradientTransform="translate(-428.31 56.18) rotate(-3.36)" xlink:href="#b"/><linearGradient id="k" x1="483.89" y1="29.59" x2="491.19" y2="29.59" gradientTransform="translate(-429.12 56.18) rotate(-3.36)" xlink:href="#b"/><linearGradient id="l" x1="486.8" y1="23.81" x2="494.1" y2="23.81" gradientTransform="translate(-429.87 55.91) rotate(-3.36)" xlink:href="#b"/><linearGradient id="m" x1="491.38" y1="18.05" x2="498.67" y2="18.05" gradientTransform="translate(-430.65 55.43) rotate(-3.36)" xlink:href="#b"/><linearGradient id="n" x1="493.64" y1="37.38" x2="563.53" y2="37.38" xlink:href="#g"/><linearGradient id="o" x1="670.81" y1="100.36" x2="759.38" y2="100.36" gradientTransform="translate(-615.06 204.45) rotate(-15.7)" xlink:href="#g"/><linearGradient id="p" x1="866.69" y1="366.21" x2="1121.51" y2="366.21" gradientTransform="matrix(1, 0, 0, 1, 0, 0)" xlink:href="#g"/><linearGradient id="q" x1="962.87" y1="597.81" x2="1043.88" y2="626.84" gradientTransform="matrix(1, 0, 0, 1, 0, 0)" xlink:href="#g"/><linearGradient id="r" x1="962.87" y1="643.81" x2="1043.88" y2="672.84" gradientTransform="matrix(1, 0, 0, 1, 0, 0)" xlink:href="#g"/><linearGradient id="s" x1="962.87" y1="692.81" x2="1043.88" y2="721.84" gradientTransform="matrix(1, 0, 0, 1, 0, 0)" xlink:href="#g"/><linearGradient id="t" x1="107.85" y1="202.39" x2="168.68" y2="224.19" gradientTransform="matrix(1, 0, 0, 1, 0, 0)" xlink:href="#g"/><linearGradient id="u" x1="118.47" y1="234.32" x2="181.77" y2="257.01" gradientTransform="matrix(1, 0, 0, 1, 0, 0)" xlink:href="#g"/><linearGradient id="v" x1="107.85" y1="266.89" x2="168.68" y2="288.69" gradientTransform="matrix(1, 0, 0, 1, 0, 0)" xlink:href="#g"/></defs><rect class="av" x="47" y="37" width="104.18" height="107" rx="11.74" ry="11.74"/><path d="M390.49,449.57c23.34,0,42.32,3.75,42.32,8.37s-18.99,8.37-42.32,8.37-42.32-3.75-42.32-8.37,18.99-8.37,42.32-8.37m0-.16c-23.46,0-42.49,3.82-42.49,8.53s19.02,8.53,42.49,8.53,42.49-3.82,42.49-8.53-19.02-8.53-42.49-8.53h0Z"/><path d="M390.49,444.1c23.34,0,42.32,3.75,42.32,8.37s-18.99,8.37-42.32,8.37-42.32-3.75-42.32-8.37,18.99-8.37,42.32-8.37m0-.16c-23.46,0-42.49,3.82-42.49,8.53s19.02,8.53,42.49,8.53,42.49-3.82,42.49-8.53-19.02-8.53-42.49-8.53h0Z"/><path d="M453.57,484.01c27.95,0,50.69,13.64,50.69,30.42s-22.74,30.42-50.69,30.42-50.69-13.64-50.69-30.42,22.74-30.42,50.69-30.42m0-.16c-28.09,0-50.85,13.69-50.85,30.58s22.77,30.58,50.85,30.58,50.85-13.69,50.85-30.58-22.77-30.58-50.85-30.58h0Z"/><g><ellipse class="aq" cx="304.75" cy="164.25" rx="15.59" ry="11.58" transform="translate(-31.91 83.55) rotate(-14.84)"/><ellipse class="ap" cx="301.93" cy="141.55" rx="9.36" ry="7.1" transform="translate(-15.23 38.56) rotate(-7.13)"/><ellipse class="aa" cx="300.85" cy="125.05" rx="9.36" ry="7.1" transform="translate(-13.19 38.3) rotate(-7.13)"/><ellipse class="a`" cx="305.5" cy="109.12" rx="9.36" ry="7.1" transform="translate(-11.18 38.75) rotate(-7.13)"/><ellipse class="ac" cx="314.36" cy="92.45" rx="9.36" ry="7.1" transform="translate(-9.04 39.72) rotate(-7.13)"/><path class="ab" d="M500.36,136.88c-.14,3.28-.45,11.06-4.89,16.79-10.96,14.13-40.05,6.85-42.58,6.19-16.11-4.22-16.52-10.87-33.63-14.44-5.77-1.2-16.08-3.35-28.29-.38-10.09,2.46-24.78,9.21-30.81,11.98-3.68,1.69-9.36,4.4-15.61,2.77-5.93,1.27-13.71-1.7-18.41-6.1-5.36-5.01-6.32-11.5-7.25-17.81-1.09-7.33-.08-12.83,1.43-20.6,2.36-12.17,3.54-18.25,8.53-22.17,3.25-2.55,7.96-4.29,12.32-4.3,3.72-1.81,8.95-1.58,18.92-1.06,20.9,1.08,25.28,4.48,44.2,6.55,22.11,2.41,41.67,1.72,41.67,1.72,3.2-.11,11.21-.46,21.18,1.95,4.34,1.05,9.25,2.27,14.78,5.69,2.98,1.84,9.8,6.17,14.36,14.95,1.46,2.81,4.43,9.44,4.07,18.26Z"/><path class="aj" d="M519.41,240.86c-.22-12.89-4.63-13.92-10.53-34.59-6.38-22.34-5.74-35.39-11.21-36.37-4.65-.83-6.13,8.42-16.33,11.31-8.52,2.41-12.58-2.6-20.1,.63-7.04,3.02-5.68,8.37-11.31,11.31-10.68,5.58-21.24-10.73-42.85-11.55-4.53-.17-17.47-.09-27.86,8.83-2.12,1.82-14.16,12.16-12.1,24.16,2.51,14.59,23.94,20.41,26.86,21.21,19.45,5.28,38.66,.48,44.93-1.35,15.22-4.42,23.51-10.98,29.23-6.75,3.46,2.56,4.78,8.2,3.46,12.42-2.22,7.06-11.56,6.8-23.78,14.55-15.06,9.55-13.28,12.31-22.15,16.84-14.83,7.56-37.49,9.21-52.87-.58-5.84-3.72-7.68-7.21-22.75-18.1-4.68-3.38-8.62-6.02-11.2-7.71-1.8-.74-14.88-5.9-27.79,1.19-1.81,1-10.39,5.95-13.98,16.19-2.34,6.67-1.39,12.19,.02,20.34,.91,5.27,2.16,12.49,7.04,20.51,6.25,10.26,14.55,15.41,18.02,17.51,8.12,4.91,15.84,6.76,20.89,7.52,4.76,.45,12.1,.91,21.05,.41,8.72-.48,13.94-1.58,22.45-2.81,16.03-2.31,18.73-1.47,31.32-3.02,10.1-1.24,25.32-3.11,42.94-9.94,9.69-3.75,23.32-9.18,36.65-21.66,5.02-4.7,11.14-10.54,15.88-20.3,6.22-12.82,6.16-24.36,6.06-30.2Z"/></g><g><ellipse class="ai" cx="60.84" cy="72.45" rx="6.08" ry="4.51" transform="translate(-16.53 18) rotate(-14.84)"/><ellipse class="al" cx="59.74" cy="63.6" rx="3.65" ry="2.77" transform="translate(-7.43 7.9) rotate(-7.13)"/><ellipse class="ak" cx="59.32" cy="57.17" rx="3.65" ry="2.77" transform="translate(-6.64 7.8) rotate(-7.13)"/><ellipse class="an" cx="61.13" cy="50.96" rx="3.65" ry="2.77" transform="translate(-5.85 7.98) rotate(-7.13)"/><ellipse class="am" cx="64.58" cy="44.46" rx="3.65" ry="2.77" transform="translate(-5.02 8.36) rotate(-7.13)"/><path class="ao" d="M137.09,61.78c-.05,1.28-.18,4.31-1.91,6.55-4.27,5.51-15.61,2.67-16.6,2.41-6.28-1.65-6.44-4.24-13.11-5.63-2.25-.47-6.27-1.31-11.03-.15-3.93,.96-9.66,3.59-12.01,4.67-1.43,.66-3.65,1.72-6.08,1.08-2.31,.49-5.35-.66-7.18-2.38-2.09-1.95-2.46-4.48-2.83-6.94-.42-2.86-.03-5,.56-8.03,.92-4.74,1.38-7.11,3.33-8.64,1.27-.99,3.1-1.67,4.8-1.68,1.45-.71,3.49-.62,7.38-.41,8.15,.42,9.86,1.75,17.23,2.55,8.62,.94,16.25,.67,16.25,.67,1.25-.04,4.37-.18,8.26,.76,1.69,.41,3.6,.89,5.76,2.22,1.16,.72,3.82,2.41,5.6,5.83,.57,1.1,1.73,3.68,1.59,7.12Z"/><path class="ae" d="M144.52,102.32c-.09-5.03-1.81-5.43-4.1-13.48-2.49-8.71-2.24-13.8-4.37-14.18-1.81-.32-2.39,3.28-6.37,4.41-3.32,.94-4.91-1.01-7.84,.24-2.74,1.18-2.22,3.26-4.41,4.41-4.16,2.17-8.28-4.18-16.71-4.5-1.77-.07-6.81-.03-10.86,3.44-.83,.71-5.52,4.74-4.72,9.42,.98,5.69,9.33,7.96,10.47,8.27,7.58,2.06,15.07,.19,17.52-.53,5.93-1.72,9.17-4.28,11.39-2.63,1.35,1,1.86,3.2,1.35,4.84-.86,2.75-4.51,2.65-9.27,5.67-5.87,3.72-5.18,4.8-8.63,6.56-5.78,2.95-14.62,3.59-20.61-.23-2.28-1.45-2.99-2.81-8.87-7.06-1.82-1.32-3.36-2.35-4.37-3.01-.7-.29-5.8-2.3-10.83,.47-.71,.39-4.05,2.32-5.45,6.31-.91,2.6-.54,4.75,0,7.93,.35,2.05,.84,4.87,2.75,8,2.44,4,5.67,6.01,7.02,6.83,3.16,1.91,6.17,2.64,8.15,2.93,1.85,.18,4.72,.35,8.21,.16,3.4-.19,5.43-.62,8.75-1.09,6.25-.9,7.3-.57,12.21-1.18,3.94-.48,9.87-1.21,16.74-3.87,3.78-1.46,9.09-3.58,14.29-8.44,1.96-1.83,4.34-4.11,6.19-7.91,2.43-5,2.4-9.49,2.36-11.77Z"/></g><path d="M752.59,150.64v26.08h-27.11V95.74h34.77c4.12,0,8.16,.44,12.12,1.32,3.96,.88,7.51,2.36,10.64,4.46,3.13,2.1,5.64,4.88,7.55,8.35,1.9,3.47,2.86,7.83,2.86,13.1s-.93,9.3-2.8,12.81c-1.87,3.51-4.35,6.37-7.43,8.58-3.09,2.21-6.63,3.81-10.64,4.8-4,.99-8.1,1.49-12.3,1.49h-7.66Zm0-33.74v13.04h5.72c2.06,0,3.95-.51,5.66-1.54,1.72-1.03,2.57-2.76,2.57-5.2,0-1.3-.23-2.34-.69-3.15-.46-.8-1.09-1.43-1.89-1.89-.8-.46-1.7-.78-2.69-.97-.99-.19-1.98-.29-2.97-.29h-5.72Z"/><path d="M803.64,95.74h28.94l31.57,80.98h-29.62l-4.23-11.89h-25.73l-4,11.89h-28.82l31.91-80.98Zm14.07,28.25l-6.63,20.02h13.15l-6.52-20.02Z"/><path d="M976.61,132.39c-2.71-1.94-5.66-3.53-8.86-4.75-3.2-1.22-6.25-2.29-9.15-3.2-2.82-.91-4.86-1.68-6.12-2.29-1.26-.61-1.89-1.52-1.89-2.75,0-1.3,.61-2.23,1.83-2.8,1.22-.57,2.82-.86,4.8-.86,2.13,0,4.54,.59,7.21,1.77,2.67,1.18,4.92,2.92,6.75,5.2l16.93-17.27c-4.19-3.89-9.06-6.86-14.58-8.92-5.53-2.06-10.96-3.09-16.3-3.09-3.97,0-7.97,.5-12.01,1.49-4.04,.99-7.68,2.62-10.92,4.87-3.24,2.25-5.89,5.14-7.95,8.65-2.06,3.51-3.09,7.79-3.09,12.83,0,3.59,.57,6.67,1.72,9.22,1.14,2.56,2.69,4.75,4.63,6.59,1.94,1.83,4.17,3.38,6.69,4.64,.58,.29,.9,.42,1.03,.47,2.24,.85,3.66,.29,3.94,.78,.21,.36-.19,1.29-3.28,3.94-.52-.25-1.46-.72-2.62-1.31-8.4-4.29-13.25-7.64-20.99-11.81-3.36-1.81-4.71-2.39-5.25-2.62-2.54-1.08-3.04-1.03-4.59-1.97-1.9-1.15-2.09-1.79-3.94-2.62-1.52-.69-3.57-1.23-3.94-.66-.31,.48,.74,1.45,.51,1.7-.29,.31-2.09-1.13-5.15-2.85-.76-.43-1.6-.91-2.57-1.47-3.29-1.91-5.46-3.26-6.84-4.14-2.12-1.35-2.17-1.38-2.19-1.35-.3,.35,12.91,11.28,15.59,10.74,.95-.19,1.31-.66,1.31-.66,.31-.39,.25-.75,.66-1.31,.24-.34,.49-.52,.66-.66,.63-.52,2.21-2.09,1.97-3.28-.12-.57-.6-.92-1.31-1.31-2.02-1.1-4.31-1.05-4.35-.82-.02,.09,.57,.33,1.73,.82,.59,.25,.69,.27,.78,.32,.56,.3,.92,1.62-.13,6.24l20.21-22.46c-4.19-3.89-9.06-6.86-14.58-8.92-5.53-2.06-10.96-3.09-16.3-3.09-3.97,0-7.97,.5-12.01,1.49-4.04,.99-7.68,2.62-10.92,4.87-3.24,2.25-5.89,5.14-7.95,8.65-2.06,3.51-3.09,7.79-3.09,12.83,0,3.59,.57,6.67,1.72,9.22,1.14,2.56,2.69,4.75,4.63,6.59,1.94,1.83,4.17,3.38,6.69,4.64,2.52,1.26,5.15,2.35,7.89,3.26,2.82,.92,5.16,1.72,7.03,2.41,1.87,.69,3.33,1.32,4.4,1.89,1.07,.57,1.81,1.13,2.23,1.66,.42,.54,.63,1.18,.63,1.95,0,1.45-.63,2.44-1.89,2.98-1.26,.54-2.65,.8-4.17,.8-3.36,0-6.62-.8-9.78-2.4-3.17-1.6-5.7-3.43-7.61-5.49l-16.58,18.02c2.06,1.82,4.38,3.47,6.98,4.95,2.59,1.48,5.36,2.77,8.29,3.87,2.93,1.1,5.99,1.93,9.15,2.5,3.16,.57,6.38,.85,9.66,.85,4.12,0,8.16-.59,12.12-1.77,3.96-1.18,7.53-2.97,10.69-5.37,3.16-2.4,5.72-5.41,7.66-9.04,1-1.86,1.74-3.89,2.22-6.09,1.26,3.37,2.52,6.73,3.78,10.1,2.06,1.82,4.38,3.47,6.98,4.95,2.59,1.48,5.36,2.77,8.29,3.87,2.93,1.1,5.99,1.93,9.15,2.5,3.16,.57,6.38,.85,9.66,.85,4.12,0,8.16-.59,12.12-1.77,3.96-1.18,7.53-2.97,10.69-5.37,3.16-2.4,5.72-5.41,7.66-9.04,1.94-3.62,2.92-7.87,2.92-12.75,0-4.19-.88-7.7-2.63-10.52-1.75-2.82-3.99-5.2-6.69-7.15Z"/><path d="M988.31,135.77c0-6.48,1.14-12.33,3.43-17.56,2.29-5.22,5.43-9.66,9.44-13.32,4-3.66,8.75-6.48,14.24-8.46,5.49-1.98,11.44-2.97,17.84-2.97s12.35,.99,17.84,2.97c5.49,1.98,10.25,4.8,14.3,8.46,4.04,3.66,7.21,8.1,9.49,13.32,2.29,5.22,3.43,11.08,3.43,17.56s-1.14,12.39-3.43,17.73c-2.29,5.34-5.45,9.89-9.49,13.67-4.04,3.77-8.81,6.69-14.3,8.75-5.49,2.06-11.44,3.09-17.84,3.09s-12.35-1.03-17.84-3.09c-5.49-2.06-10.24-4.98-14.24-8.75-4-3.77-7.15-8.33-9.44-13.67-2.29-5.34-3.43-11.25-3.43-17.73Zm28.94,0c0,2.67,.4,5.11,1.2,7.32,.8,2.21,1.9,4.12,3.32,5.72,1.41,1.6,3.11,2.84,5.09,3.72,1.98,.88,4.12,1.32,6.4,1.32s4.4-.44,6.35-1.32c1.94-.88,3.64-2.12,5.09-3.72,1.45-1.6,2.57-3.51,3.37-5.72,.8-2.21,1.2-4.65,1.2-7.32s-.4-4.98-1.2-7.15c-.8-2.17-1.93-4-3.37-5.49-1.45-1.49-3.15-2.65-5.09-3.49-1.94-.84-4.06-1.26-6.35-1.26s-4.42,.42-6.4,1.26c-1.98,.84-3.68,2-5.09,3.49-1.41,1.49-2.52,3.32-3.32,5.49-.8,2.17-1.2,4.56-1.2,7.15Z"/><path d="M1111.05,179c-3.28,0-6.5-.29-9.66-.85-3.16-.57-6.22-1.41-9.15-2.5-3.94-1.47-6.7-2.99-8.29-3.87-4.17-2.29-10.06-5.43-18.72-9.76,3.72-7.21,7.43-14.43,11.15-21.64,11.12,6.73,19.93,11.48,24.78,13.92,0,0,4.01,2.4,9.78,2.4,1.52,0,2.92-.27,4.17-.8,1.26-.53,1.89-1.53,1.89-2.98,0-.76-.21-1.41-.63-1.95-.42-.53-1.16-1.09-2.23-1.66-1.07-.57-2.54-1.2-4.4-1.89-1.87-.69-4.21-1.49-7.03-2.41-2.75-.91-5.38-2-7.89-3.26-2.52-1.26-4.75-2.81-6.69-4.64-1.94-1.83-3.49-4.03-4.63-6.59-1.14-2.56-1.72-5.63-1.72-9.22,0-5.04,1.03-9.32,3.09-12.83,2.06-3.51,4.71-6.4,7.95-8.65,3.24-2.25,6.88-3.88,10.92-4.87,4.04-.99,8.04-1.49,12.01-1.49,5.34,0,10.77,1.03,16.3,3.09,5.53,2.06,10.39,5.03,14.58,8.92l-16.93,17.27c-1.83-2.29-4.08-4.02-6.75-5.2-2.67-1.18-5.07-1.77-7.21-1.77-1.98,0-3.58,.29-4.8,.86-1.22,.57-1.83,1.51-1.83,2.8,0,1.22,.63,2.14,1.89,2.75,1.26,.61,3.3,1.37,6.12,2.29,2.9,.91,5.95,1.98,9.15,3.2,3.2,1.22,6.16,2.8,8.86,4.75,2.71,1.94,4.94,4.33,6.69,7.15,1.75,2.82,2.63,6.33,2.63,10.52,0,4.88-.97,9.13-2.92,12.75-1.94,3.62-4.5,6.63-7.66,9.04-3.16,2.4-6.73,4.19-10.69,5.37-3.97,1.18-8.01,1.77-12.12,1.77Z"/><circle class="as" cx="1033.19" cy="136.33" r="18.36"/><circle class="bd" cx="952.41" cy="154.15" r="15.74"/><circle class="be" cx="1033.19" cy="136.33" r="11.81"/><circle class="be" cx="880.6" cy="116.44" r="11.81"/><circle cx="1033.19" cy="136.33" r="3.94"/><circle class="as" cx="880.93" cy="116.11" r="3.94"/><circle class="as" cx="952.41" cy="154.81" r="3.94"/><path class="ba" d="M952.41,154.81c26.89-6.12,53.78-12.24,80.67-18.36"/><path class="bc" d="M880.93,116.11c23.83,12.9,47.66,25.8,71.49,38.7"/><path class="ad" d="M1121.51,403.71c0,47.84-54.63,83.81-127.58,83.81s-127.24-35.97-127.24-83.81h55.31c0,9.84,28.16,28.84,71.93,28.84s72.27-19,72.27-28.84-27.48-28.5-70.92-28.84c-12.55,2.71-22.05,3.73-25.79,4.41l-6.79-54.97c22.39-2.71,56.66-11.54,79.4-24.09h-125.88v-55.31h204.6v27.48c0,30.54-17.3,52.59-40.04,68.54,25.11,14.93,40.72,37.32,40.72,62.77Z"/><text class="au" transform="translate(538.94 567.02)"><tspan class="ar" x="0" y="0">3</tspan><tspan class="bh" x="53" y="0">passos</tspan></text><path class="ag" d="M1044.03,617.7c-28.69,7.08-57.37,14.17-86.06,21.25v-33.18c28.69-7.26,57.37-14.52,86.06-21.77v33.7Z"/><path class="ah" d="M1044.03,663.7c-28.69,7.08-57.37,14.17-86.06,21.25v-33.18c28.69-7.26,57.37-14.52,86.06-21.77v33.7Z"/><path class="af" d="M1044.03,712.7c-28.69,7.08-57.37,14.17-86.06,21.25v-33.18c28.69-7.26,57.37-14.52,86.06-21.77v33.7Z"/><text class="bg" transform="translate(991.76 688.2) rotate(-2.34)"><tspan class="bf" x="0" y="0">P</tspan><tspan x="70.26" y="0">assos</tspan></text><path class="at" d="M735.83,389.33c-28.69,6.38-57.37,12.75-86.06,19.13v-29.86c28.69-6.53,57.37-13.06,86.06-19.6v30.33Z"/><path class="at" d="M753.86,429.62l-86.06,19.13v-29.86c28.69-6.53,57.37-13.06,86.06-19.6,1.36,1,6.91,5.28,7.97,12.6,1.49,10.31-7.31,17.22-7.97,17.73Z"/><path class="at" d="M735.83,474.82c-28.69,6.38-57.37,12.75-86.06,19.13v-29.86c28.69-6.53,57.37-13.06,86.06-19.6v30.33Z"/><ellipse class="as" cx="734.09" cy="420.12" rx="4.78" ry="4.97" transform="translate(-71.88 163.6) rotate(-12.13)"/><path class="b`" d="M735.17,416.67l-13.03,47.46"/><ellipse class="as" cx="718.27" cy="376.61" rx="2.4" ry="2.31" transform="translate(275.23 1055.92) rotate(-84.56)"/><path class="aw" d="M718.27,376.61l16.6,44.11"/><circle class="as" cx="722.31" cy="463.5" r="7.5"/><text class="au" transform="translate(100.94 674.02)"><tspan class="ar" x="0" y="0">3</tspan><tspan class="bh" x="53" y="0">passos</tspan></text><g><path class="at" d="M289.83,496.33c-28.69,6.38-57.37,12.75-86.06,19.13v-29.86c28.69-6.53,57.37-13.06,86.06-19.6v30.33Z"/><path class="at" d="M307.86,536.62l-86.06,19.13v-29.86c28.69-6.53,57.37-13.06,86.06-19.6,1.36,1,6.91,5.28,7.97,12.6,1.49,10.31-7.31,17.22-7.97,17.73Z"/><path class="at" d="M289.83,581.82c-28.69,6.38-57.37,12.75-86.06,19.13v-29.86c28.69-6.53,57.37-13.06,86.06-19.6v30.33Z"/><ellipse class="as" cx="288.09" cy="527.12" rx="4.78" ry="4.97" transform="translate(-104.31 72.29) rotate(-12.13)"/><path class="b`" d="M289.17,523.67l-13.03,47.46"/><ellipse class="as" cx="272.27" cy="483.61" rx="2.4" ry="2.31" transform="translate(-234.99 708.79) rotate(-84.56)"/><path class="aw" d="M272.27,483.61l16.6,44.11"/><circle class="as" cx="276.31" cy="570.5" r="7.5"/></g><path class="x" d="M168.95,216.88c-21.64,4.81-43.28,9.62-64.92,14.43v-22.53c21.64-4.93,43.28-9.86,64.92-14.78v22.88Z"/><path class="w" d="M179.51,248.79l-64.92,14.43v-22.53c21.64-4.93,43.28-9.86,64.92-14.78,1.03,.75,5.22,3.99,6.01,9.51,1.13,7.78-5.51,12.99-6.01,13.37Z"/><path class="y" d="M168.95,281.38c-21.64,4.81-43.28,9.62-64.92,14.43v-22.53c21.64-4.93,43.28-9.86,64.92-14.78v22.88Z"/><text class="bi" transform="translate(42.75 344.14)"><tspan x="0" y="0">passos</tspan></text><ellipse class="as" cx="160.45" cy="271.4" rx="1.74" ry="1.81" transform="translate(-39.57 27.69) rotate(-8.78)"/><path class="bb" d="M172.35,236.23l-11.9,35.17"/><ellipse class="as" cx="161.38" cy="205.32" rx="1.81" ry="1.74" transform="translate(-66.17 333.45) rotate(-81.22)"/><path class="ay" d="M161.38,205.32l10.56,33.95"/><circle class="as" cx="171.57" cy="239.27" r="6.41"/><path class="ax" d="M595.19,387.93c-16.23-4.45-38.77-8.85-65.82-8.85-16.83,0-39.73,1.71-65.82,8.85v-29.93h131.64v29.93Z"/></svg>