<svg width="964" height="276" viewBox="0 0 964 276" fill="none" xmlns="http://www.w3.org/2000/svg">
<path d="M304.15 96.25C310.12 90.91 313.11 83.75 313.11 74.8C313.11 68.99 311.11 64.11 307.1 60.18C303.09 56.25 297.55 54.29 290.48 54.29C283.41 54.29 277.28 55.94 272.56 59.24C267.84 62.54 263.84 67.18 260.54 73.15L239.79 60.65C245.45 50.59 252.87 43.17 262.07 38.37C271.27 33.58 281.52 31.18 292.84 31.18C299.44 31.18 305.61 32.16 311.35 34.13C317.09 36.1 322.15 38.88 326.56 42.5C330.96 46.12 334.42 50.6 336.93 55.94C339.44 61.28 340.7 67.26 340.7 73.86C340.7 80.46 339.72 85.65 337.75 90.36C335.78 95.08 333.23 99.12 330.09 102.5C326.94 105.88 323.37 108.63 319.36 110.75C315.35 112.87 311.23 114.4 306.98 115.35V115.82C315.31 117.71 321.95 121.91 326.9 128.43C331.85 134.95 334.33 142.46 334.33 150.94C334.33 159.42 332.76 167.6 329.61 174.52C326.46 181.44 322.14 187.25 316.64 191.97C311.14 196.68 304.58 200.3 296.95 202.81C289.32 205.32 281.04 206.58 272.08 206.58C258.25 206.58 246.7 203.36 237.42 196.91C228.14 190.47 221.7 181.43 218.09 169.8L244.26 161.55C245.99 168.47 249.41 173.69 254.52 177.23C259.63 180.77 266.03 182.53 273.73 182.53C284.1 182.53 292 179.9 297.42 174.63C302.84 169.37 305.55 162.41 305.55 153.76C305.55 148.73 304.53 144.45 302.49 140.91C300.45 137.37 297.78 134.54 294.47 132.42C291.16 130.3 287.36 128.77 283.04 127.82C278.71 126.88 274.35 126.41 269.96 126.41H262.89L266.66 104.25H274.68C288.35 104.25 298.18 101.58 304.15 96.23V96.25Z" fill="white"/>
<path d="M353.19 90.59H374.41V106.62H374.88C378.97 100.65 384.58 96.01 391.74 92.71C398.89 89.41 406.24 87.76 413.78 87.76C422.42 87.76 430.24 89.26 437.24 92.24C444.23 95.23 450.21 99.39 455.16 104.74C460.11 110.08 463.92 116.33 466.59 123.48C469.26 130.63 470.6 138.3 470.6 146.47C470.6 154.64 469.26 162.54 466.59 169.69C463.92 176.84 460.11 183.05 455.16 188.31C450.21 193.58 444.23 197.7 437.24 200.69C430.24 203.67 422.42 205.17 413.78 205.17C405.76 205.17 398.22 203.48 391.15 200.1C384.08 196.72 378.65 192.12 374.88 186.31H374.41V268.83H353.19V90.59V90.59ZM411.19 107.56C405.53 107.56 400.42 108.54 395.87 110.51C391.31 112.48 387.46 115.15 384.32 118.53C381.17 121.91 378.74 126 377.01 130.79C375.28 135.59 374.42 140.81 374.42 146.47C374.42 152.13 375.28 157.36 377.01 162.15C378.74 166.95 381.17 171.03 384.32 174.41C387.46 177.79 391.31 180.46 395.87 182.43C400.43 184.4 405.54 185.38 411.19 185.38C416.84 185.38 421.95 184.4 426.51 182.43C431.07 180.47 434.92 177.8 438.06 174.41C441.2 171.03 443.64 166.95 445.37 162.15C447.1 157.36 447.96 152.13 447.96 146.47C447.96 140.81 447.09 135.59 445.37 130.79C443.64 126 441.2 121.91 438.06 118.53C434.91 115.15 431.06 112.48 426.51 110.51C421.95 108.55 416.84 107.56 411.19 107.56V107.56Z" fill="white"/>
<path d="M478.85 104.26C484.82 98.76 491.74 94.63 499.6 91.88C507.46 89.13 515.32 87.75 523.18 87.75C531.04 87.75 538.39 88.77 544.28 90.81C550.17 92.85 555.01 95.61 558.78 99.06C562.55 102.52 565.34 106.49 567.15 110.97C568.96 115.45 569.86 120.13 569.86 125V182.05C569.86 185.98 569.94 189.59 570.1 192.89C570.26 196.19 570.49 199.34 570.81 202.32H551.95C551.48 196.66 551.24 191 551.24 185.35H550.77C546.05 192.58 540.47 197.69 534.03 200.67C527.58 203.65 520.12 205.15 511.63 205.15C506.44 205.15 501.49 204.44 496.78 203.03C492.07 201.62 487.94 199.49 484.4 196.66C480.86 193.83 478.07 190.33 476.03 186.17C473.99 182.01 472.97 177.17 472.97 171.67C472.97 164.44 474.58 158.39 477.8 153.52C481.02 148.65 485.42 144.68 491 141.61C496.58 138.55 503.1 136.35 510.57 135.01C518.03 133.68 526.01 133.01 534.5 133.01H550.06V128.3C550.06 125.47 549.51 122.64 548.41 119.81C547.31 116.98 545.66 114.43 543.46 112.15C541.26 109.87 538.51 108.06 535.21 106.73C531.91 105.4 527.98 104.73 523.42 104.73C519.33 104.73 515.76 105.12 512.69 105.91C509.63 106.7 506.83 107.68 504.32 108.86C501.8 110.04 499.52 111.42 497.48 112.99C495.44 114.56 493.47 116.05 491.59 117.47L478.86 104.27L478.85 104.26ZM538.73 148.58C533.7 148.58 528.55 148.86 523.29 149.41C518.02 149.96 513.23 151.02 508.91 152.59C504.58 154.16 501.05 156.36 498.3 159.19C495.55 162.02 494.17 165.64 494.17 170.03C494.17 176.48 496.33 181.11 500.65 183.94C504.97 186.77 510.82 188.18 518.21 188.18C524.02 188.18 528.97 187.2 533.06 185.23C537.14 183.27 540.45 180.71 542.96 177.57C545.47 174.43 547.28 170.93 548.38 167.08C549.48 163.23 550.03 159.42 550.03 155.65V148.58H538.71H538.73Z" fill="white"/>
<path d="M641.29 118.64C638.77 115.5 635.67 112.86 631.98 110.74C628.29 108.62 623.77 107.56 618.42 107.56C613.39 107.56 609.03 108.62 605.34 110.74C601.64 112.86 599.8 115.97 599.8 120.05C599.8 123.35 600.86 126.03 602.98 128.07C605.1 130.11 607.61 131.76 610.52 133.02C613.43 134.28 616.53 135.22 619.83 135.85C623.13 136.48 625.96 137.03 628.32 137.5C632.88 138.6 637.16 139.94 641.17 141.51C645.18 143.08 648.63 145.13 651.54 147.64C654.45 150.16 656.73 153.22 658.38 156.84C660.03 160.46 660.85 164.86 660.85 170.04C660.85 176.33 659.51 181.71 656.84 186.19C654.17 190.67 650.71 194.32 646.47 197.15C642.23 199.98 637.39 202.02 631.97 203.28C626.55 204.54 621.09 205.17 615.59 205.17C606.31 205.17 598.18 203.76 591.19 200.93C584.19 198.1 577.95 192.91 572.45 185.37L588.48 172.17C591.94 175.63 595.79 178.69 600.03 181.37C604.27 184.04 609.46 185.38 615.59 185.38C618.26 185.38 620.97 185.11 623.72 184.55C626.47 184 628.91 183.13 631.03 181.96C633.15 180.79 634.88 179.29 636.22 177.48C637.55 175.68 638.22 173.59 638.22 171.23C638.22 168.09 637.24 165.49 635.27 163.45C633.3 161.41 630.95 159.8 628.2 158.62C625.45 157.44 622.54 156.5 619.48 155.79C616.42 155.08 613.7 154.49 611.35 154.02C606.79 152.92 602.47 151.66 598.38 150.25C594.29 148.84 590.68 146.95 587.54 144.59C584.39 142.23 581.88 139.25 580 135.63C578.11 132.02 577.17 127.54 577.17 122.19C577.17 116.38 578.39 111.31 580.82 106.98C583.26 102.66 586.48 99.08 590.49 96.25C594.5 93.42 599.06 91.3 604.16 89.88C609.27 88.47 614.42 87.76 619.6 87.76C627.14 87.76 634.37 89.17 641.29 92C648.2 94.83 653.7 99.54 657.79 106.15L641.29 118.65V118.64Z" fill="white"/>
<path d="M727.1 118.64C724.58 115.5 721.48 112.86 717.79 110.74C714.1 108.62 709.58 107.56 704.23 107.56C699.2 107.56 694.84 108.62 691.15 110.74C687.45 112.86 685.61 115.97 685.61 120.05C685.61 123.35 686.67 126.03 688.79 128.07C690.91 130.11 693.42 131.76 696.33 133.02C699.24 134.28 702.34 135.22 705.64 135.85C708.94 136.48 711.77 137.03 714.13 137.5C718.69 138.6 722.97 139.94 726.98 141.51C730.99 143.08 734.44 145.13 737.35 147.64C740.26 150.16 742.54 153.22 744.19 156.84C745.84 160.46 746.66 164.86 746.66 170.04C746.66 176.33 745.32 181.71 742.65 186.19C739.98 190.67 736.52 194.32 732.28 197.15C728.04 199.98 723.2 202.02 717.78 203.28C712.36 204.54 706.9 205.17 701.4 205.17C692.12 205.17 683.99 203.76 677 200.93C670 198.1 663.76 192.91 658.26 185.37L674.29 172.17C677.75 175.63 681.6 178.69 685.84 181.37C690.08 184.04 695.27 185.38 701.4 185.38C704.07 185.38 706.78 185.11 709.53 184.55C712.28 184 714.72 183.13 716.84 181.96C718.96 180.79 720.69 179.29 722.03 177.48C723.36 175.68 724.03 173.59 724.03 171.23C724.03 168.09 723.05 165.49 721.08 163.45C719.11 161.41 716.76 159.8 714.01 158.62C711.26 157.44 708.35 156.5 705.29 155.79C702.23 155.08 699.51 154.49 697.16 154.02C692.6 152.92 688.28 151.66 684.19 150.25C680.1 148.84 676.49 146.95 673.35 144.59C670.2 142.23 667.69 139.25 665.81 135.63C663.92 132.02 662.98 127.54 662.98 122.19C662.98 116.38 664.2 111.31 666.63 106.98C669.07 102.66 672.29 99.08 676.3 96.25C680.31 93.42 684.87 91.3 689.97 89.88C695.08 88.47 700.23 87.76 705.41 87.76C712.95 87.76 720.18 89.17 727.1 92C734.01 94.83 739.51 99.54 743.6 106.15L727.1 118.65V118.64Z" fill="white"/>
<path d="M748.08 146.46C748.08 138.29 749.61 130.66 752.68 123.59C755.74 116.52 759.95 110.31 765.29 104.96C770.63 99.61 776.92 95.41 784.15 92.35C791.38 89.29 799.16 87.75 807.49 87.75C815.82 87.75 823.6 89.28 830.83 92.35C838.06 95.42 844.35 99.62 849.69 104.96C855.03 110.31 859.24 116.51 862.3 123.59C865.37 130.66 866.9 138.29 866.9 146.46C866.9 154.63 865.37 162.3 862.3 169.45C859.24 176.6 855.03 182.81 849.69 188.07C844.35 193.34 838.06 197.5 830.83 200.57C823.6 203.64 815.82 205.17 807.49 205.17C799.16 205.17 791.38 203.64 784.15 200.57C776.92 197.51 770.63 193.34 765.29 188.07C759.94 182.81 755.74 176.6 752.68 169.45C749.61 162.3 748.08 154.64 748.08 146.46ZM770.71 146.46C770.71 152.12 771.57 157.35 773.3 162.14C775.03 166.94 777.46 171.02 780.61 174.4C783.75 177.78 787.6 180.45 792.16 182.42C796.72 184.39 801.83 185.37 807.48 185.37C813.13 185.37 818.24 184.39 822.8 182.42C827.36 180.46 831.21 177.79 834.35 174.4C837.49 171.02 839.93 166.94 841.66 162.14C843.39 157.35 844.25 152.12 844.25 146.46C844.25 140.8 843.38 135.58 841.66 130.78C839.93 125.99 837.49 121.9 834.35 118.52C831.2 115.14 827.35 112.47 822.8 110.5C818.24 108.54 813.13 107.55 807.48 107.55C801.83 107.55 796.71 108.53 792.16 110.5C787.6 112.47 783.75 115.14 780.61 118.52C777.46 121.9 775.03 125.99 773.3 130.78C771.57 135.58 770.71 140.8 770.71 146.46Z" fill="white"/>
<path d="M934.1 118.64C931.58 115.5 928.48 112.86 924.79 110.74C921.1 108.62 916.58 107.56 911.23 107.56C906.2 107.56 901.84 108.62 898.15 110.74C894.45 112.86 892.61 115.97 892.61 120.05C892.61 123.35 893.67 126.03 895.79 128.07C897.91 130.11 900.42 131.76 903.33 133.02C906.24 134.28 909.34 135.22 912.64 135.85C915.94 136.48 918.77 137.03 921.13 137.5C925.69 138.6 929.97 139.94 933.98 141.51C937.99 143.08 941.44 145.13 944.35 147.64C947.26 150.16 949.54 153.22 951.19 156.84C952.84 160.46 953.66 164.86 953.66 170.04C953.66 176.33 952.32 181.71 949.65 186.19C946.98 190.67 943.52 194.32 939.28 197.15C935.04 199.98 930.2 202.02 924.78 203.28C919.36 204.54 913.9 205.17 908.4 205.17C899.12 205.17 890.99 203.76 884 200.93C877 198.1 870.76 192.91 865.26 185.37L881.29 172.17C884.75 175.63 888.6 178.69 892.84 181.37C897.08 184.04 902.27 185.38 908.4 185.38C911.07 185.38 913.78 185.11 916.53 184.55C919.28 184 921.72 183.13 923.84 181.96C925.96 180.79 927.69 179.29 929.03 177.48C930.36 175.68 931.03 173.59 931.03 171.23C931.03 168.09 930.05 165.49 928.08 163.45C926.11 161.41 923.76 159.8 921.01 158.62C918.26 157.44 915.35 156.5 912.29 155.79C909.23 155.08 906.51 154.49 904.16 154.02C899.6 152.92 895.28 151.66 891.19 150.25C887.1 148.84 883.49 146.95 880.35 144.59C877.2 142.23 874.69 139.25 872.81 135.63C870.92 132.02 869.98 127.54 869.98 122.19C869.98 116.38 871.2 111.31 873.63 106.98C876.07 102.66 879.29 99.08 883.3 96.25C887.31 93.42 891.87 91.3 896.97 89.88C902.08 88.47 907.23 87.76 912.41 87.76C919.95 87.76 927.18 89.17 934.1 92C941.01 94.83 946.51 99.54 950.6 106.15L934.1 118.65V118.64Z" fill="white"/>
<path d="M165.95 67.82C114.08 79.35 62.21 90.88 10.34 102.41V48.42C62.21 36.61 114.08 24.8 165.95 12.99V67.83V67.82Z" fill="white"/>
<path d="M198.55 144.69L42.94 179.28V125.29C94.81 113.48 146.68 101.67 198.55 89.86C201.01 91.66 211.05 99.42 212.96 112.64C215.66 131.29 199.75 143.78 198.55 144.69Z" fill="white"/>
<path d="M167.95 224.42C116.08 235.95 64.21 247.48 12.34 259.01V205.02C64.21 193.21 116.08 181.4 167.95 169.59V224.43V224.42Z" fill="white"/>
<path d="M162.63 123.29C155.48 149.89 148.33 176.49 141.18 203.09Z" fill="black"/>
<path d="M162.63 123.29C155.48 149.89 148.33 176.49 141.18 203.09" stroke="#CECECE" stroke-width="3.31" stroke-linecap="round" stroke-linejoin="round"/>
<path d="M134.18 44.83C143.66 70.98 153.14 97.13 162.63 123.29Z" fill="black"/>
<path d="M134.18 44.83C143.66 70.98 153.14 97.13 162.63 123.29" stroke="#CECECE" stroke-width="3.11" stroke-linecap="round" stroke-linejoin="round"/>
<path d="M169.072 129.81C172.491 126.395 172.45 120.811 168.98 117.337C165.51 113.863 159.925 113.816 156.506 117.231C153.087 120.647 153.129 126.231 156.599 129.705C160.069 133.178 165.653 133.226 169.072 129.81Z" fill="black"/>
<path d="M141.49 215.51C148.979 215.51 155.05 209.439 155.05 201.95C155.05 194.461 148.979 188.39 141.49 188.39C134.001 188.39 127.93 194.461 127.93 201.95C127.93 209.439 134.001 215.51 141.49 215.51Z" fill="black"/>
<path d="M137.157 47.812C138.809 46.1593 138.817 43.4904 137.176 41.8511C135.535 40.2118 132.866 40.2227 131.215 41.8754C129.564 43.5282 129.556 46.197 131.197 47.8364C132.838 49.4757 135.506 49.4648 137.157 47.812Z" fill="black"/>
</svg>
