<?xml version="1.0" encoding="UTF-8"?><svg id="a" xmlns="http://www.w3.org/2000/svg" viewBox="0 0 964 276"><defs><style>.b{fill:#fff;}.c{stroke-width:3.11px;}.c,.d{fill:none;stroke:#fff;stroke-linecap:round;stroke-linejoin:round;}.d{stroke-width:3.31px;}</style></defs><g><path d="M304.15,96.25c5.97-5.34,8.96-12.5,8.96-21.45,0-5.81-2-10.69-6.01-14.62-4.01-3.93-9.55-5.89-16.62-5.89s-13.2,1.65-17.92,4.95c-4.72,3.3-8.72,7.94-12.02,13.91l-20.75-12.5c5.66-10.06,13.08-17.48,22.28-22.28,9.2-4.79,19.45-7.19,30.77-7.19,6.6,0,12.77,.98,18.51,2.95,5.74,1.97,10.8,4.75,15.21,8.37,4.4,3.62,7.86,8.1,10.37,13.44,2.51,5.34,3.77,11.32,3.77,17.92s-.98,11.79-2.95,16.5c-1.97,4.72-4.52,8.76-7.66,12.14-3.15,3.38-6.72,6.13-10.73,8.25-4.01,2.12-8.13,3.65-12.38,4.6v.47c8.33,1.89,14.97,6.09,19.92,12.61,4.95,6.52,7.43,14.03,7.43,22.51s-1.57,16.66-4.72,23.58c-3.15,6.92-7.47,12.73-12.97,17.45-5.5,4.71-12.06,8.33-19.69,10.84-7.63,2.51-15.91,3.77-24.87,3.77-13.83,0-25.38-3.22-34.66-9.67-9.28-6.44-15.72-15.48-19.33-27.11l26.17-8.25c1.73,6.92,5.15,12.14,10.26,15.68,5.11,3.54,11.51,5.3,19.21,5.3,10.37,0,18.27-2.63,23.69-7.9,5.42-5.26,8.13-12.22,8.13-20.87,0-5.03-1.02-9.31-3.06-12.85-2.04-3.54-4.71-6.37-8.02-8.49s-7.11-3.65-11.43-4.6c-4.33-.94-8.69-1.41-13.08-1.41h-7.07l3.77-22.16h8.02c13.67,0,23.5-2.67,29.47-8.02Z"/><path d="M353.19,90.59h21.22v16.03h.47c4.09-5.97,9.7-10.61,16.86-13.91,7.15-3.3,14.5-4.95,22.04-4.95,8.64,0,16.46,1.5,23.46,4.48,6.99,2.99,12.97,7.15,17.92,12.5,4.95,5.34,8.76,11.59,11.43,18.74,2.67,7.15,4.01,14.82,4.01,22.99s-1.34,16.07-4.01,23.22c-2.67,7.15-6.48,13.36-11.43,18.62-4.95,5.27-10.93,9.39-17.92,12.38-7,2.98-14.82,4.48-23.46,4.48-8.02,0-15.56-1.69-22.63-5.07-7.07-3.38-12.5-7.98-16.27-13.79h-.47v82.52h-21.22V90.59Zm58,16.97c-5.66,0-10.77,.98-15.32,2.95-4.56,1.97-8.41,4.64-11.55,8.02-3.15,3.38-5.58,7.47-7.31,12.26-1.73,4.8-2.59,10.02-2.59,15.68s.86,10.89,2.59,15.68c1.73,4.8,4.16,8.88,7.31,12.26,3.14,3.38,6.99,6.05,11.55,8.02,4.56,1.97,9.67,2.95,15.32,2.95s10.76-.98,15.32-2.95c4.56-1.96,8.41-4.63,11.55-8.02,3.14-3.38,5.58-7.46,7.31-12.26,1.73-4.79,2.59-10.02,2.59-15.68s-.87-10.88-2.59-15.68c-1.73-4.79-4.17-8.88-7.31-12.26-3.15-3.38-7-6.05-11.55-8.02-4.56-1.96-9.67-2.95-15.32-2.95Z"/><path d="M478.85,104.26c5.97-5.5,12.89-9.63,20.75-12.38,7.86-2.75,15.72-4.13,23.58-4.13s15.21,1.02,21.1,3.06c5.89,2.04,10.73,4.8,14.5,8.25,3.77,3.46,6.56,7.43,8.37,11.91,1.81,4.48,2.71,9.16,2.71,14.03v57.05c0,3.93,.08,7.54,.24,10.84,.16,3.3,.39,6.45,.71,9.43h-18.86c-.47-5.66-.71-11.32-.71-16.97h-.47c-4.72,7.23-10.3,12.34-16.74,15.32-6.45,2.98-13.91,4.48-22.4,4.48-5.19,0-10.14-.71-14.85-2.12-4.71-1.41-8.84-3.54-12.38-6.37s-6.33-6.33-8.37-10.49c-2.04-4.16-3.06-9-3.06-14.5,0-7.23,1.61-13.28,4.83-18.15,3.22-4.87,7.62-8.84,13.2-11.91,5.58-3.06,12.1-5.26,19.57-6.6,7.46-1.33,15.44-2,23.93-2h15.56v-4.71c0-2.83-.55-5.66-1.65-8.49-1.1-2.83-2.75-5.38-4.95-7.66-2.2-2.28-4.95-4.09-8.25-5.42-3.3-1.33-7.23-2-11.79-2-4.09,0-7.66,.39-10.73,1.18-3.06,.79-5.86,1.77-8.37,2.95-2.52,1.18-4.8,2.56-6.84,4.13-2.04,1.57-4.01,3.06-5.89,4.48l-12.73-13.2Zm59.88,44.32c-5.03,0-10.18,.28-15.44,.83-5.27,.55-10.06,1.61-14.38,3.18-4.33,1.57-7.86,3.77-10.61,6.6-2.75,2.83-4.13,6.45-4.13,10.84,0,6.45,2.16,11.08,6.48,13.91,4.32,2.83,10.17,4.24,17.56,4.24,5.81,0,10.76-.98,14.85-2.95,4.08-1.96,7.39-4.52,9.9-7.66,2.51-3.14,4.32-6.64,5.42-10.49,1.1-3.85,1.65-7.66,1.65-11.43v-7.07h-11.32Z"/><path d="M641.29,118.64c-2.52-3.14-5.62-5.78-9.31-7.9-3.69-2.12-8.21-3.18-13.56-3.18-5.03,0-9.39,1.06-13.08,3.18-3.7,2.12-5.54,5.23-5.54,9.31,0,3.3,1.06,5.98,3.18,8.02,2.12,2.04,4.63,3.69,7.54,4.95,2.91,1.26,6.01,2.2,9.31,2.83,3.3,.63,6.13,1.18,8.49,1.65,4.56,1.1,8.84,2.44,12.85,4.01,4.01,1.57,7.46,3.62,10.37,6.13,2.91,2.52,5.19,5.58,6.84,9.2,1.65,3.62,2.47,8.02,2.47,13.2,0,6.29-1.34,11.67-4.01,16.15-2.67,4.48-6.13,8.13-10.37,10.96-4.24,2.83-9.08,4.87-14.5,6.13-5.42,1.26-10.88,1.89-16.38,1.89-9.28,0-17.41-1.41-24.4-4.24-7-2.83-13.24-8.02-18.74-15.56l16.03-13.2c3.46,3.46,7.31,6.52,11.55,9.2,4.24,2.67,9.43,4.01,15.56,4.01,2.67,0,5.38-.27,8.13-.83,2.75-.55,5.19-1.42,7.31-2.59s3.85-2.67,5.19-4.48c1.33-1.8,2-3.89,2-6.25,0-3.14-.98-5.74-2.95-7.78-1.97-2.04-4.32-3.65-7.07-4.83-2.75-1.18-5.66-2.12-8.72-2.83-3.06-.71-5.78-1.3-8.13-1.77-4.56-1.1-8.88-2.36-12.97-3.77-4.09-1.41-7.7-3.3-10.84-5.66-3.15-2.36-5.66-5.34-7.54-8.96-1.89-3.61-2.83-8.09-2.83-13.44,0-5.81,1.22-10.88,3.65-15.21,2.44-4.32,5.66-7.9,9.67-10.73,4.01-2.83,8.57-4.95,13.67-6.37,5.11-1.41,10.26-2.12,15.44-2.12,7.54,0,14.77,1.41,21.69,4.24,6.91,2.83,12.41,7.54,16.5,14.15l-16.5,12.5Z"/><path d="M727.1,118.64c-2.52-3.14-5.62-5.78-9.31-7.9-3.69-2.12-8.21-3.18-13.56-3.18-5.03,0-9.39,1.06-13.08,3.18-3.7,2.12-5.54,5.23-5.54,9.31,0,3.3,1.06,5.98,3.18,8.02,2.12,2.04,4.63,3.69,7.54,4.95,2.91,1.26,6.01,2.2,9.31,2.83,3.3,.63,6.13,1.18,8.49,1.65,4.56,1.1,8.84,2.44,12.85,4.01,4.01,1.57,7.46,3.62,10.37,6.13,2.91,2.52,5.19,5.58,6.84,9.2,1.65,3.62,2.47,8.02,2.47,13.2,0,6.29-1.34,11.67-4.01,16.15-2.67,4.48-6.13,8.13-10.37,10.96-4.24,2.83-9.08,4.87-14.5,6.13-5.42,1.26-10.88,1.89-16.38,1.89-9.28,0-17.41-1.41-24.4-4.24-7-2.83-13.24-8.02-18.74-15.56l16.03-13.2c3.46,3.46,7.31,6.52,11.55,9.2,4.24,2.67,9.43,4.01,15.56,4.01,2.67,0,5.38-.27,8.13-.83,2.75-.55,5.19-1.42,7.31-2.59s3.85-2.67,5.19-4.48c1.33-1.8,2-3.89,2-6.25,0-3.14-.98-5.74-2.95-7.78-1.97-2.04-4.32-3.65-7.07-4.83-2.75-1.18-5.66-2.12-8.72-2.83-3.06-.71-5.78-1.3-8.13-1.77-4.56-1.1-8.88-2.36-12.97-3.77-4.09-1.41-7.7-3.3-10.84-5.66-3.15-2.36-5.66-5.34-7.54-8.96-1.89-3.61-2.83-8.09-2.83-13.44,0-5.81,1.22-10.88,3.65-15.21,2.44-4.32,5.66-7.9,9.67-10.73,4.01-2.83,8.57-4.95,13.67-6.37,5.11-1.41,10.26-2.12,15.44-2.12,7.54,0,14.77,1.41,21.69,4.24,6.91,2.83,12.41,7.54,16.5,14.15l-16.5,12.5Z"/><path d="M748.08,146.46c0-8.17,1.53-15.8,4.6-22.87,3.06-7.07,7.27-13.28,12.61-18.63s11.63-9.55,18.86-12.61c7.23-3.06,15.01-4.6,23.34-4.6s16.11,1.53,23.34,4.6c7.23,3.07,13.52,7.27,18.86,12.61,5.34,5.35,9.55,11.55,12.61,18.63,3.07,7.07,4.6,14.7,4.6,22.87s-1.53,15.84-4.6,22.99c-3.06,7.15-7.27,13.36-12.61,18.62-5.34,5.27-11.63,9.43-18.86,12.5-7.23,3.07-15.01,4.6-23.34,4.6s-16.11-1.53-23.34-4.6c-7.23-3.06-13.52-7.23-18.86-12.5-5.35-5.26-9.55-11.47-12.61-18.62-3.07-7.15-4.6-14.81-4.6-22.99Zm22.63,0c0,5.66,.86,10.89,2.59,15.68,1.73,4.8,4.16,8.88,7.31,12.26,3.14,3.38,6.99,6.05,11.55,8.02,4.56,1.97,9.67,2.95,15.32,2.95s10.76-.98,15.32-2.95c4.56-1.96,8.41-4.63,11.55-8.02,3.14-3.38,5.58-7.46,7.31-12.26,1.73-4.79,2.59-10.02,2.59-15.68s-.87-10.88-2.59-15.68c-1.73-4.79-4.17-8.88-7.31-12.26-3.15-3.38-7-6.05-11.55-8.02-4.56-1.96-9.67-2.95-15.32-2.95s-10.77,.98-15.32,2.95c-4.56,1.97-8.41,4.64-11.55,8.02-3.15,3.38-5.58,7.47-7.31,12.26-1.73,4.8-2.59,10.02-2.59,15.68Z"/><path d="M934.1,118.64c-2.52-3.14-5.62-5.78-9.31-7.9-3.69-2.12-8.21-3.18-13.56-3.18-5.03,0-9.39,1.06-13.08,3.18-3.7,2.12-5.54,5.23-5.54,9.31,0,3.3,1.06,5.98,3.18,8.02,2.12,2.04,4.63,3.69,7.54,4.95,2.91,1.26,6.01,2.2,9.31,2.83,3.3,.63,6.13,1.18,8.49,1.65,4.56,1.1,8.84,2.44,12.85,4.01,4.01,1.57,7.46,3.62,10.37,6.13,2.91,2.52,5.19,5.58,6.84,9.2,1.65,3.62,2.47,8.02,2.47,13.2,0,6.29-1.34,11.67-4.01,16.15-2.67,4.48-6.13,8.13-10.37,10.96-4.24,2.83-9.08,4.87-14.5,6.13-5.42,1.26-10.88,1.89-16.38,1.89-9.28,0-17.41-1.41-24.4-4.24-7-2.83-13.24-8.02-18.74-15.56l16.03-13.2c3.46,3.46,7.31,6.52,11.55,9.2,4.24,2.67,9.43,4.01,15.56,4.01,2.67,0,5.38-.27,8.13-.83,2.75-.55,5.19-1.42,7.31-2.59s3.85-2.67,5.19-4.48c1.33-1.8,2-3.89,2-6.25,0-3.14-.98-5.74-2.95-7.78-1.97-2.04-4.32-3.65-7.07-4.83-2.75-1.18-5.66-2.12-8.72-2.83-3.06-.71-5.78-1.3-8.13-1.77-4.56-1.1-8.88-2.36-12.97-3.77-4.09-1.41-7.7-3.3-10.84-5.66-3.15-2.36-5.66-5.34-7.54-8.96-1.89-3.61-2.83-8.09-2.83-13.44,0-5.81,1.22-10.88,3.65-15.21,2.44-4.32,5.66-7.9,9.67-10.73,4.01-2.83,8.57-4.95,13.67-6.37,5.11-1.41,10.26-2.12,15.44-2.12,7.54,0,14.77,1.41,21.69,4.24,6.91,2.83,12.41,7.54,16.5,14.15l-16.5,12.5Z"/></g><path d="M165.95,67.82c-51.87,11.53-103.74,23.06-155.61,34.59V48.42C62.21,36.61,114.08,24.8,165.95,12.99v54.84Z"/><path d="M198.55,144.69L42.94,179.28v-53.99c51.87-11.81,103.74-23.62,155.61-35.43,2.46,1.8,12.5,9.56,14.41,22.78,2.7,18.65-13.21,31.14-14.41,32.05Z"/><path d="M167.95,224.42c-51.87,11.53-103.74,23.06-155.61,34.59v-53.99c51.87-11.81,103.74-23.62,155.61-35.43v54.84Z"/><path class="d" d="M162.63,123.29c-7.15,26.6-14.3,53.2-21.45,79.8"/><path class="c" d="M134.18,44.83c9.48,26.15,18.96,52.3,28.45,78.46"/><ellipse class="b" cx="162.79" cy="123.51" rx="8.75" ry="8.89" transform="translate(-39.67 151.19) rotate(-44.97)"/><circle class="b" cx="141.49" cy="201.95" r="13.56"/><ellipse class="b" cx="134.18" cy="44.83" rx="4.23" ry="4.2" transform="translate(7.64 108.09) rotate(-45.03)"/></svg>