<?xml version="1.0" encoding="UTF-8"?>
<!DOCTYPE svg PUBLIC "-//W3C//DTD SVG 1.1//EN" "http://www.w3.org/Graphics/SVG/1.1/DTD/svg11.dtd">
<svg xmlns="http://www.w3.org/2000/svg" version="1.1" width="3151px" height="3201px" style="shape-rendering:geometricPrecision; text-rendering:geometricPrecision; image-rendering:optimizeQuality; fill-rule:evenodd; clip-rule:evenodd" xmlns:xlink="http://www.w3.org/1999/xlink">
<g><path style="opacity:0.998" fill="#000000" d="M 2009.5,785.5 C 1970.88,682.312 1933.21,578.646 1896.5,474.5C 1911.39,460.34 1916.89,443.007 1913,422.5C 1902.8,391.976 1881.63,378.476 1849.5,382C 1819.11,391.272 1804.95,411.772 1807,443.5C 1812.6,470.608 1829.1,485.608 1856.5,488.5C 1857.21,489.404 1858.21,489.737 1859.5,489.5C 1895.77,591.312 1932.44,692.979 1969.5,794.5C 1406.59,919.882 843.588,1044.88 280.5,1169.5C 280.167,939.597 280.501,709.764 281.5,480C 942.833,329.434 1604.17,178.934 2265.5,28.5C 2265.67,261.834 2265.5,495.167 2265,728.5C 2179.93,747.815 2094.76,766.815 2009.5,785.5 Z"/></g>
<g><path style="opacity:1" fill="#fdfdfd" d="M 1896.5,474.5 C 1885.31,484.897 1871.98,489.564 1856.5,488.5C 1829.1,485.608 1812.6,470.608 1807,443.5C 1804.95,411.772 1819.11,391.272 1849.5,382C 1881.63,378.476 1902.8,391.976 1913,422.5C 1916.89,443.007 1911.39,460.34 1896.5,474.5 Z"/></g>
<g><path style="opacity:0.99" fill="#b1b1b1" d="M 1896.5,474.5 C 1933.21,578.646 1970.88,682.312 2009.5,785.5C 2050.93,901.792 2092.93,1017.79 2135.5,1133.5C 2157.75,1197.34 2180.59,1261.01 2204,1324.5C 2205.05,1326.11 2206.55,1326.77 2208.5,1326.5C 2193.96,1328.35 2180.29,1333.02 2167.5,1340.5C 2143.38,1274.98 2119.55,1209.31 2096,1143.5C 2095.62,1142.94 2095.12,1142.61 2094.5,1142.5C 2052.83,1026.5 2011.17,910.5 1969.5,794.5C 1932.44,692.979 1895.77,591.312 1859.5,489.5C 1858.21,489.737 1857.21,489.404 1856.5,488.5C 1871.98,489.564 1885.31,484.897 1896.5,474.5 Z"/></g>
<g><path style="opacity:0.998" fill="#000000" d="M 2139.5,1830.5 C 2163.3,1737.47 2187.97,1644.64 2213.5,1552C 2213.84,1550.97 2214.5,1550.47 2215.5,1550.5C 2268.15,1552.93 2305.99,1530.6 2329,1483.5C 2346.54,1433.13 2336.04,1389.63 2297.5,1353C 2271.46,1332.16 2241.8,1323.32 2208.5,1326.5C 2206.55,1326.77 2205.05,1326.11 2204,1324.5C 2180.59,1261.01 2157.75,1197.34 2135.5,1133.5C 2317.04,1092.41 2498.54,1051.07 2680,1009.5C 2751.79,1060.62 2805.12,1126.62 2840,1207.5C 2884.21,1322 2877.88,1433.67 2821,1542.5C 2785.9,1606.96 2739.74,1662.46 2682.5,1709C 2501.52,1749.69 2320.52,1790.19 2139.5,1830.5 Z"/></g>
<g><path style="opacity:0.999" fill="#000000" d="M 2094.5,1142.5 C 2095.12,1142.61 2095.62,1142.94 2096,1143.5C 2119.55,1209.31 2143.38,1274.98 2167.5,1340.5C 2121.98,1370.16 2104.82,1411.83 2116,1465.5C 2125.05,1497.7 2144.22,1521.7 2173.5,1537.5C 2146.17,1638.83 2118.83,1740.17 2091.5,1841.5C 1626.47,1944.37 1161.47,2047.37 696.5,2150.5C 696.167,1920.6 696.501,1690.76 697.5,1461C 1163.4,1355.26 1629.06,1249.09 2094.5,1142.5 Z"/></g>
<g><path style="opacity:1" fill="#fefefe" d="M 2215.5,1550.5 C 2200.73,1549.02 2186.73,1544.69 2173.5,1537.5C 2144.22,1521.7 2125.05,1497.7 2116,1465.5C 2104.82,1411.83 2121.98,1370.16 2167.5,1340.5C 2180.29,1333.02 2193.96,1328.35 2208.5,1326.5C 2241.8,1323.32 2271.46,1332.16 2297.5,1353C 2336.04,1389.63 2346.54,1433.13 2329,1483.5C 2305.99,1530.6 2268.15,1552.93 2215.5,1550.5 Z"/></g>
<g><path style="opacity:0.993" fill="#b1b1b1" d="M 2173.5,1537.5 C 2186.73,1544.69 2200.73,1549.02 2215.5,1550.5C 2214.5,1550.47 2213.84,1550.97 2213.5,1552C 2187.97,1644.64 2163.3,1737.47 2139.5,1830.5C 2117.1,1912.04 2095.1,1993.7 2073.5,2075.5C 2054.56,2142.61 2036.22,2209.94 2018.5,2277.5C 2004.03,2272.55 1989.36,2268.88 1974.5,2266.5C 1977.35,2266.19 1978.85,2264.52 1979,2261.5C 1994.66,2203.19 2010.16,2144.86 2025.5,2086.5C 2047.5,2004.83 2069.5,1923.17 2091.5,1841.5C 2118.83,1740.17 2146.17,1638.83 2173.5,1537.5 Z"/></g>
<g><path style="opacity:0.998" fill="#000000" d="M 2025.5,2086.5 C 2010.16,2144.86 1994.66,2203.19 1979,2261.5C 1978.85,2264.52 1977.35,2266.19 1974.5,2266.5C 1903.1,2260.55 1847.26,2286.88 1807,2345.5C 1776.62,2396.94 1772.29,2450.6 1794,2506.5C 1822.85,2567.86 1871.02,2602.69 1938.5,2611C 2006.7,2614.31 2060.2,2588.15 2099,2532.5C 2131.14,2479.21 2135.14,2423.88 2111,2366.5C 2091.06,2325.39 2060.22,2295.72 2018.5,2277.5C 2036.22,2209.94 2054.56,2142.61 2073.5,2075.5C 2140.78,2060.56 2207.94,2045.22 2275,2029.5C 2275.5,2263.17 2275.67,2496.83 2275.5,2730.5C 1614.1,2877.18 952.766,3024.18 291.5,3171.5C 290.5,2941.5 290.167,2711.5 290.5,2481.5C 868.894,2349.98 1447.23,2218.32 2025.5,2086.5 Z"/></g>
<g><path style="opacity:1" fill="#fefefe" d="M 1974.5,2266.5 C 1989.36,2268.88 2004.03,2272.55 2018.5,2277.5C 2060.22,2295.72 2091.06,2325.39 2111,2366.5C 2135.14,2423.88 2131.14,2479.21 2099,2532.5C 2060.2,2588.15 2006.7,2614.31 1938.5,2611C 1871.02,2602.69 1822.85,2567.86 1794,2506.5C 1772.29,2450.6 1776.62,2396.94 1807,2345.5C 1847.26,2286.88 1903.1,2260.55 1974.5,2266.5 Z"/></g>
</svg>
